<svg version="1.0" xmlns="http://www.w3.org/2000/svg" width="300" height="300" viewBox="0 0 300.000000 300.000000" preserveAspectRatio="xMidYMid " class="svg" style="width: 256px; height: 256px;">
<g transform="translate(0.000000,300.000000) scale(0.100000,-0.100000)" fill="#676767" stroke="none">
<path class="node" id="node1" d="M1302 2959 c-13 -5 -27 -7 -31 -4 -5 2 -53 0 -107 -4 -94 -9 -184
-36 -199 -62 -7 -11 -105 -1 -119 12 -17 15 -25 10 -40 -25 -10 -23 -28 -42
-54 -55 -42 -21 -78 -85 -65 -116 7 -20 -63 -95 -89 -95 -10 0 -25 -12 -35
-27 -10 -16 -23 -31 -29 -35 -6 -4 -17 -22 -25 -40 -7 -18 -23 -46 -35 -63
-32 -45 -50 -101 -37 -117 18 -21 10 -181 -11 -212 -16 -26 -16 -28 4 -55 13
-19 16 -31 9 -33 -16 -5 -1 -48 17 -48 8 0 14 -6 14 -14 0 -8 4 -16 8 -18 16
-6 70 -84 76 -108 5 -22 28 -43 144 -134 23 -19 26 -19 74 -1 37 13 65 16 109
11 51 -5 67 -2 107 18 95 49 186 41 194 -16 3 -21 9 -23 55 -23 36 0 59 -6 74
-18 20 -17 21 -25 15 -84 -4 -36 -12 -75 -17 -86 -13 -23 -3 -47 53 -122 41
-56 91 -180 84 -208 -2 -10 2 -37 10 -59 13 -38 10 -88 -5 -88 -17 0 -43 -80
-48 -145 -4 -68 -3 -73 41 -159 32 -63 46 -102 46 -130 0 -66 25 -152 54 -186
14 -17 26 -38 26 -46 0 -8 9 -32 20 -54 13 -26 18 -49 14 -69 -5 -24 -1 -35
21 -55 26 -24 28 -24 73 -10 26 7 62 14 80 14 93 0 166 46 249 158 15 20 33
42 40 47 13 11 35 94 28 106 -6 9 23 33 60 50 27 13 30 19 33 68 2 30 -2 67
-9 83 -11 27 -9 31 42 82 30 29 71 61 91 70 60 28 72 57 69 159 -1 61 -7 97
-18 113 -9 14 -16 46 -17 72 -1 26 -7 56 -13 68 -10 17 -7 31 18 83 35 74 141
206 196 244 62 43 90 84 157 229 48 103 55 183 13 150 -7 -5 -34 -13 -62 -17
-27 -4 -70 -14 -94 -22 -41 -14 -44 -13 -65 6 -12 12 -28 21 -36 21 -10 0 -9
4 3 18 15 16 13 20 -21 57 -21 22 -54 52 -73 67 -27 20 -39 39 -48 72 -7 29
-20 52 -36 62 -16 11 -25 26 -25 43 0 46 -19 97 -45 119 -14 13 -25 33 -25 47
0 14 -4 25 -9 25 -5 0 -13 10 -17 23 -13 44 -48 112 -67 134 -10 12 -17 28
-15 35 3 8 12 0 22 -19 9 -18 23 -33 30 -33 19 0 27 53 15 90 -9 26 -16 30
-46 30 -19 0 -43 4 -53 10 -13 7 -26 5 -47 -5 -35 -18 -60 -19 -93 -2 -15 8
-43 16 -63 20 -21 3 -57 16 -81 28 -39 19 -46 20 -72 7 -24 -11 -29 -19 -27
-46 3 -37 -27 -62 -46 -38 -6 8 -31 19 -56 25 -28 7 -46 18 -50 30 -6 21 -52
41 -94 41 -14 0 -39 11 -56 24 -29 24 -30 24 -11 45 12 13 16 26 11 38 -5 10
-7 23 -6 30 3 19 -31 32 -57 22z m856 -1442 c7 -8 7 -25 -1 -54 -10 -39 -13
-42 -44 -41 -30 1 -33 4 -33 33 0 33 15 59 40 68 23 8 27 8 38 -6z m-146 -204
c3 -23 9 -47 15 -55 6 -7 14 -27 17 -43 l6 -30 -12 26 c-7 14 -18 33 -25 41
-7 8 -15 41 -18 74 -4 41 -3 54 4 44 5 -9 11 -34 13 -57z m171 -279 c-3 -25
-1 -44 6 -48 13 -8 15 -26 3 -26 -18 0 -31 51 -30 117 0 67 0 67 13 33 7 -19
11 -54 8 -76z" style="fill: rgb(176, 57, 103);"></path>
<path class="node" id="node2" d="M2660 1015 c-5 -14 -14 -25 -20 -25 -5 0 -10 -9 -10 -19 0 -23 -53
-66 -92 -76 -34 -9 -52 -52 -45 -107 4 -32 0 -53 -19 -91 -15 -29 -23 -56 -19
-66 4 -9 9 -26 10 -38 9 -65 35 -82 91 -58 26 11 34 22 43 57 5 23 28 95 51
158 22 64 38 125 35 137 -4 17 -2 21 10 17 21 -8 21 66 0 106 -19 36 -23 37
-35 5z" style="fill: rgb(176, 57, 103);"></path>
</g>
<g transform="translate(0.000000,300.000000) scale(0.100000,-0.100000)" fill="#FFFFFF" stroke="none">

<path class="node" id="node4" d="M2120 1523 c-25 -9 -40 -35 -40 -68 0 -29 3 -32 33 -33 31 -1 34 2
44 41 15 54 2 74 -37 60z" style="fill: rgb(176, 57, 103);"></path>
<path class="node" id="node5" d="M1995 1326 c3 -33 11 -66 18 -74 7 -8 18 -27 25 -41 l12 -26 -6 30
c-3 16 -11 36 -17 43 -6 8 -12 32 -15 55 -2 23 -8 48 -13 57 -7 10 -8 -3 -4
-44z" style="fill: rgb(176, 57, 103);"></path>
<path class="node" id="node6" d="M2162 1077 c-1 -66 12 -117 30 -117 12 0 10 18 -3 26 -7 4 -9 23 -6
48 3 22 -1 57 -8 76 -13 34 -13 34 -13 -33z" style="fill: rgb(176, 57, 103);"></path>
</g>
</svg>