<svg version="1.0" xmlns="http://www.w3.org/2000/svg" width="300" height="300" viewBox="0 0 300.000000 254.000000" preserveAspectRatio="xMidYMid " class="svg" style="width: 256px; height: 256px;">
<metadata>
  <rdf:rdf xmlns:rdf="http://www.w3.org/1999/02/22-rdf-syntax-ns#" xmlns:rdfs="http://www.w3.org/2000/01/rdf-schema#" xmlns:dc="http://purl.org/dc/elements/1.1/">
    <rdf:description dc:title="Antarctica" dc:publisher="Hiox" dc:date="2015-04-24" dc:format="image/svg+xml" dc:language="en">
      <dc:creator>
        <rdf:bag>
          <rdf:li>svgimages.com</rdf:li>
        </rdf:bag>
      </dc:creator>
    </rdf:description>
  </rdf:rdf>
</metadata>
<g transform="translate(0.000000,254.000000) scale(0.100000,-0.100000)" fill="#756651" stroke="none">
<path class="node" id="node1" d="M1527 2493 c-36 -36 -50 -45 -56 -35 -5 9 -23 13 -52 10 -40 -3 -44
-1 -53 27 -14 40 -13 40 -31 25 -8 -7 -15 -25 -15 -41 0 -31 -9 -36 -27 -18
-15 15 -33 3 -33 -21 0 -13 -5 -17 -20 -13 -14 4 -20 0 -20 -11 0 -9 9 -24 20
-33 27 -24 25 -31 -14 -50 -41 -19 -86 -79 -108 -143 -41 -121 -41 -121 -27
-146 11 -22 10 -27 -13 -52 -33 -36 -53 -114 -36 -142 16 -25 37 -26 54 -2 10
13 13 14 14 3 0 -8 8 -23 17 -33 14 -16 15 -25 5 -66 -6 -26 -14 -69 -17 -97
-4 -27 -11 -54 -15 -60 -4 -5 -10 -21 -12 -35 -2 -19 -34 -46 -137 -117 -124
-86 -166 -105 -185 -86 -4 5 -34 6 -67 5 l-59 -4 6 29 c4 21 0 33 -15 47 -32
29 -25 38 23 31 92 -14 142 52 71 94 -19 11 -35 27 -35 34 0 8 -7 20 -15 27
-8 7 -15 23 -15 36 0 17 -6 24 -18 24 -10 0 -19 6 -19 13 0 19 -45 77 -60 77
-7 0 -28 9 -48 20 -20 11 -44 20 -55 20 -11 0 -24 9 -30 20 -8 16 -20 20 -53
19 -23 0 -64 4 -92 9 -40 8 -52 7 -61 -5 -16 -22 -73 -8 -84 22 -5 12 -16 25
-25 29 -12 4 -14 14 -10 40 6 28 3 36 -13 45 -23 12 -38 53 -47 126 -10 86
-15 99 -28 86 -18 -18 -13 -150 6 -186 9 -16 17 -40 17 -51 0 -12 7 -27 15
-34 8 -7 15 -17 15 -22 0 -20 56 -81 114 -126 49 -38 68 -47 103 -47 23 -1 46
-4 49 -8 4 -4 20 -7 36 -7 43 0 66 -16 83 -58 28 -66 20 -145 -22 -200 -25
-33 -25 -33 -4 -39 27 -7 27 -38 0 -57 -20 -13 -21 -20 -14 -80 3 -36 10 -68
14 -71 5 -2 12 -33 15 -67 7 -54 5 -64 -12 -77 -15 -12 -19 -24 -15 -49 7 -40
17 -41 33 -3 8 21 21 32 43 37 17 3 39 11 49 17 26 17 31 3 13 -34 -19 -35
-25 -24 65 -115 29 -30 21 -51 -28 -73 -38 -17 -41 -34 -9 -48 14 -7 37 -38
56 -77 27 -55 40 -71 74 -88 23 -11 56 -39 73 -62 27 -36 35 -41 68 -40 27 1
44 -5 61 -22 24 -24 75 -33 75 -14 0 6 14 24 31 41 22 22 38 29 53 25 11 -3
24 -6 29 -6 4 0 7 -9 7 -20 0 -11 9 -25 20 -32 11 -7 20 -18 20 -25 0 -7 6
-13 14 -13 24 0 38 27 31 59 -4 18 -1 38 7 50 10 17 10 25 -3 48 -9 16 -15 33
-12 39 2 6 -6 19 -17 29 -38 35 -21 60 40 57 34 -2 37 0 59 47 12 28 19 55 16
61 -4 6 -1 17 5 25 8 9 10 28 6 51 -12 62 24 83 65 39 13 -13 29 -25 36 -25 7
0 18 -12 25 -28 8 -15 23 -28 36 -30 12 -2 32 -17 45 -34 12 -16 36 -35 52
-42 17 -7 54 -35 83 -61 46 -42 52 -51 47 -76 -5 -21 -1 -32 14 -46 13 -11 21
-29 21 -50 0 -26 -6 -36 -30 -48 -16 -9 -30 -20 -30 -26 0 -6 16 -29 35 -52
19 -22 35 -48 35 -57 0 -9 5 -21 12 -28 7 -7 13 -30 13 -52 1 -34 -2 -39 -17
-34 -14 4 -18 0 -18 -20 0 -14 -5 -26 -11 -26 -7 0 -9 -9 -5 -24 4 -15 0 -28
-10 -37 -8 -7 -13 -21 -11 -31 3 -10 1 -20 -3 -23 -18 -11 21 -95 45 -95 7 0
18 -7 25 -15 16 -20 41 -19 79 2 27 16 33 16 63 4 18 -8 73 -16 121 -19 73 -3
92 0 107 13 12 11 28 15 42 12 13 -3 31 0 41 8 13 9 27 11 50 4 53 -15 114
-11 149 11 18 11 41 20 50 20 26 0 120 63 156 105 33 36 39 59 23 84 -10 15
-4 41 9 41 19 0 79 46 80 61 0 9 11 33 25 53 14 20 25 44 25 52 0 26 32 71 57
83 13 6 28 22 34 35 6 13 19 26 29 29 19 5 38 76 22 86 -5 3 -12 18 -15 33 -6
21 -3 28 11 32 16 5 56 78 75 137 3 9 -4 35 -15 58 -18 36 -18 42 -5 61 8 12
13 30 10 40 -3 10 2 29 10 41 21 33 18 100 -5 117 -23 17 -23 41 0 58 16 12
16 14 -5 41 -13 15 -30 43 -38 61 -8 19 -24 36 -35 39 -11 3 -20 14 -20 25 0
10 -9 37 -20 58 -16 31 -26 40 -47 40 -19 0 -39 14 -72 50 -44 47 -48 49 -106
52 -48 2 -60 7 -63 21 -3 12 3 17 21 17 14 0 38 11 54 24 27 23 41 26 126 26
48 -1 57 20 24 60 -15 17 -31 54 -37 87 -7 32 -17 69 -23 83 -27 64 -37 160
-12 120 14 -23 23 -7 24 45 0 50 -2 56 -33 80 -37 28 -64 32 -72 10 -7 -17
-41 -20 -64 -5 -8 5 -15 24 -15 42 0 27 -4 33 -20 30 -80 -10 -85 -10 -96 9
-13 25 -106 28 -115 4 -4 -8 -12 -15 -18 -15 -20 0 -58 59 -51 79 3 11 -1 24
-11 32 -14 11 -18 10 -33 -10 -17 -22 -20 -22 -42 -8 -14 8 -61 17 -111 21
-99 7 -115 11 -123 35 -3 9 -24 29 -47 45 -38 25 -50 27 -105 23 -46 -3 -66
-1 -74 9 -8 10 -25 12 -65 8 -46 -6 -54 -4 -54 10 0 28 -24 18 -73 -31z" style="fill: rgb(176, 57, 103);"></path>
<path class="node" id="node2" d="M896 1774 c-20 -19 -20 -73 -1 -98 8 -11 15 -35 15 -54 0 -33 1 -34
18 -20 9 9 32 19 50 23 42 9 71 49 54 76 -7 10 -12 26 -12 35 0 10 -5 14 -15
10 -8 -3 -15 -1 -15 5 0 6 -7 9 -15 5 -10 -4 -15 1 -15 14 0 25 -41 27 -64 4z" style="fill: rgb(176, 57, 103);"></path>
<path class="node" id="node3" d="M213 1713 c-17 -6 -16 -38 1 -52 11 -9 19 -9 37 1 17 10 23 10 26 1
3 -7 13 -13 24 -13 16 0 19 -7 19 -45 0 -42 2 -45 26 -45 24 0 26 3 21 29 -7
36 18 51 39 24 12 -16 15 -16 24 -3 14 22 13 28 -13 54 -37 37 -161 67 -204
49z" style="fill: rgb(176, 57, 103);"></path>
<path class="node" id="node4" d="M922 1559 c-18 -28 -6 -61 21 -57 25 3 35 41 17 64 -16 19 -23 18
-38 -7z" style="fill: rgb(176, 57, 103);"></path>
<path class="node" id="node5" d="M677 1433 c-12 -11 -7 -40 9 -53 13 -11 19 -10 36 7 25 26 18 53 -15
53 -13 0 -27 -3 -30 -7z" style="fill: rgb(176, 57, 103);"></path>
<path class="node" id="node6" d="M314 1125 c-16 -12 -17 -17 -6 -34 6 -12 12 -31 12 -43 1 -28 38 -75
49 -62 12 13 31 74 31 99 0 31 -60 59 -86 40z" style="fill: rgb(176, 57, 103);"></path>
<path class="node" id="node7" d="M564 755 c-4 -8 -1 -28 5 -43 9 -23 17 -59 20 -95 1 -5 11 -7 24 -5
19 3 22 8 20 43 -4 52 -21 93 -45 106 -14 7 -20 6 -24 -6z" style="fill: rgb(176, 57, 103);"></path>
<path class="node" id="node8" d="M1256 621 c-10 -16 6 -71 21 -71 21 0 27 28 13 56 -14 25 -25 30 -34
15z" style="fill: rgb(176, 57, 103);"></path>
</g>
<g transform="translate(0.000000,254.000000) scale(0.100000,-0.100000)" fill="#FFFFFF" stroke="none">





</g>
</svg>