<svg version="1.0" xmlns="http://www.w3.org/2000/svg" width="300" height="300" viewBox="0 0 300.000000 258.000000" preserveAspectRatio="xMidYMid " class="svg" style="width: 256px; height: 256px;">
<metadata>
  <rdf:rdf xmlns:rdf="http://www.w3.org/1999/02/22-rdf-syntax-ns#" xmlns:rdfs="http://www.w3.org/2000/01/rdf-schema#" xmlns:dc="http://purl.org/dc/elements/1.1/">
    <rdf:description dc:title="asia map" dc:publisher="Hiox" dc:date="2015-04-24" dc:format="image/svg+xml" dc:language="en">
      <dc:creator>
        <rdf:bag>
          <rdf:li>svgimages.com</rdf:li>
        </rdf:bag>
      </dc:creator>
    </rdf:description>
  </rdf:rdf>
</metadata>
<g transform="translate(0.000000,258.000000) scale(0.100000,-0.100000)" fill="#D1A05B" stroke="none">
<path class="node" id="node1" d="M1260 2515 c0 -8 7 -15 15 -15 8 0 15 7 15 15 0 8 -7 15 -15 15 -8 0
-15 -7 -15 -15z" style="fill: rgb(176, 57, 103);"></path>
<path class="node" id="node2" d="M1297 2483 c-9 -9 22 -43 40 -43 14 0 16 10 7 34 -6 16 -35 22 -47 9z" style="fill: rgb(176, 57, 103);"></path>
<path class="node" id="node3" d="M1388 2446 c-7 -37 4 -47 29 -26 21 17 21 18 4 34 -24 21 -28 20 -33
-8z" style="fill: rgb(176, 57, 103);"></path>
<path class="node" id="node4" d="M835 2396 c-15 -13 -45 -27 -66 -30 -24 -4 -42 -14 -49 -26 -6 -11
-17 -20 -24 -20 -8 0 -19 -13 -26 -29 -6 -16 -20 -37 -31 -47 -10 -9 -19 -27
-19 -38 0 -12 -9 -39 -20 -61 -22 -43 -25 -65 -10 -65 6 0 10 -7 10 -15 0 -8
9 -15 19 -15 11 0 23 -4 26 -10 3 -5 11 -10 17 -10 7 0 7 4 0 13 -6 7 -14 32
-17 56 -4 33 -1 48 15 68 11 14 20 32 20 40 0 7 7 16 15 19 8 4 15 12 15 20 0
15 80 93 96 94 19 0 95 60 89 70 -10 16 -30 11 -60 -14z" style="fill: rgb(176, 57, 103);"></path>
<path class="node" id="node5" d="M1442 2390 c-12 -16 -22 -34 -22 -40 0 -5 -15 -10 -34 -10 -19 0 -37
-4 -40 -9 -3 -5 -17 -12 -31 -15 -20 -5 -111 -54 -134 -73 -3 -2 1 -9 7 -15
16 -16 15 -28 -3 -28 -8 0 -23 -4 -33 -10 -9 -5 -29 -14 -44 -20 -36 -12 -35
-33 2 -67 34 -30 44 -93 14 -93 -11 0 -14 8 -12 28 2 20 -5 34 -28 55 -18 15
-36 27 -42 27 -16 0 -24 -50 -11 -66 14 -17 6 -29 -16 -21 -10 4 -15 19 -15
43 l0 37 -18 -24 c-14 -18 -17 -37 -14 -76 4 -48 6 -52 30 -55 23 -3 27 -8 29
-35 1 -18 -3 -33 -8 -33 -5 0 -9 7 -9 15 0 29 -26 15 -43 -22 -20 -44 -59 -76
-81 -67 -22 8 -20 21 4 29 11 3 28 17 39 31 16 20 18 35 14 91 -3 38 -6 91 -7
118 -1 43 -4 50 -22 53 -16 2 -23 -4 -28 -21 -3 -13 -17 -36 -31 -51 -32 -34
-32 -60 0 -98 24 -28 32 -48 19 -48 -17 0 -115 54 -123 68 -12 20 -25 9 -26
-21 0 -17 -5 -21 -23 -19 -13 2 -34 -4 -48 -12 -13 -9 -24 -12 -24 -6 0 13
-47 13 -55 0 -4 -6 -22 -17 -41 -25 -19 -8 -34 -21 -34 -29 0 -9 -4 -16 -9
-16 -10 0 -21 34 -21 68 0 13 -6 22 -15 22 -17 0 -21 -45 -5 -55 11 -7 14 -48
4 -58 -3 -3 -14 -1 -25 6 -14 9 -22 7 -38 -7 -12 -11 -21 -26 -21 -34 0 -10
-8 -13 -30 -10 -27 4 -29 2 -24 -19 4 -14 2 -23 -5 -23 -11 0 -29 35 -49 99
-11 31 -10 33 11 27 67 -18 92 -18 111 3 18 20 18 21 -10 46 -16 15 -42 34
-58 42 -17 9 -37 25 -46 36 l-17 21 -27 -28 c-19 -18 -26 -32 -20 -44 4 -9 6
-26 6 -37 -4 -59 -4 -102 1 -115 3 -8 8 -33 11 -56 5 -36 2 -44 -24 -69 -25
-24 -28 -30 -15 -38 21 -11 19 -27 -4 -27 -22 0 -41 -39 -46 -95 -2 -22 -15
-52 -34 -75 -25 -31 -30 -45 -25 -69 4 -21 1 -35 -10 -46 -27 -28 -20 -47 17
-44 41 4 57 -6 57 -36 0 -34 18 -41 30 -11 10 27 31 26 58 -1 15 -14 36 -8 26
8 -6 10 23 38 39 39 4 0 7 -10 7 -23 0 -14 16 -37 45 -62 25 -22 45 -48 45
-57 0 -38 -67 -49 -140 -23 -44 16 -58 12 -86 -24 -7 -9 -22 -12 -42 -9 -29 4
-31 3 -26 -21 10 -41 25 -50 94 -53 54 -3 65 -7 68 -22 6 -30 -28 -96 -50 -96
-21 0 -22 -1 -6 -35 6 -14 19 -25 29 -25 10 0 24 -15 34 -37 27 -63 56 -117
70 -133 8 -8 16 -28 20 -45 15 -65 15 -65 54 -65 22 0 44 6 51 15 7 8 20 15
30 15 9 0 25 9 35 20 10 11 28 20 40 20 12 0 35 16 53 36 26 29 30 39 22 55
-6 10 -17 19 -25 19 -9 0 -15 9 -15 21 0 21 -1 21 -26 4 -32 -21 -70 -13 -80
18 -3 12 -15 30 -26 40 -23 22 -19 41 9 45 15 2 27 -6 39 -28 19 -31 54 -48
74 -35 6 4 22 -3 36 -16 19 -18 35 -22 75 -21 66 1 102 -17 123 -63 12 -24 23
-35 32 -31 14 5 18 -6 28 -75 2 -20 14 -57 25 -82 12 -25 21 -51 21 -56 0 -16
15 -13 39 7 12 9 24 34 28 57 7 45 9 47 75 94 26 19 49 39 52 47 3 8 18 12 39
11 44 -3 91 -51 82 -84 -5 -20 -2 -23 23 -23 27 0 30 -3 36 -46 3 -26 6 -58 6
-72 0 -14 17 -50 38 -81 32 -48 37 -53 40 -33 2 13 -9 39 -27 64 -31 41 -36
66 -23 100 6 16 12 14 46 -16 21 -19 35 -39 31 -45 -8 -14 8 -14 22 0 6 6 22
17 35 23 33 17 33 46 -2 94 -33 46 -36 62 -18 80 15 15 58 16 58 1 0 -6 7 -3
16 5 8 9 32 16 53 16 41 0 63 16 116 85 34 43 38 73 17 127 -8 20 -12 44 -9
53 10 24 9 29 -9 31 -32 5 -40 44 -10 44 8 0 19 7 26 15 7 8 16 15 21 15 5 0
9 -7 9 -15 0 -10 10 -15 30 -15 23 0 30 -4 30 -20 0 -11 4 -20 10 -20 5 0 8
-15 5 -35 -4 -37 10 -46 33 -23 15 15 15 43 1 67 -12 19 -12 19 49 84 12 13
26 17 44 13 24 -5 32 2 71 53 53 72 72 135 57 192 -10 35 -14 39 -38 37 -50
-5 -39 29 29 98 l63 64 65 0 c45 0 70 -5 82 -16 20 -18 59 -11 59 10 0 8 16
26 36 41 35 26 38 27 50 11 15 -22 49 -14 64 15 14 26 32 24 28 -3 -2 -13 -29
-43 -63 -70 -33 -27 -62 -54 -64 -61 -2 -7 -9 -19 -16 -27 -22 -27 -27 -87
-10 -120 15 -29 35 -33 35 -7 0 7 8 17 18 23 26 17 65 99 60 127 -4 21 3 29
50 56 39 23 58 28 67 21 9 -7 35 -1 91 23 65 28 80 38 82 58 2 15 -5 32 -18
44 -29 26 -25 38 10 30 29 -6 30 -6 30 32 1 34 2 36 14 21 7 -10 19 -18 27
-18 7 0 25 -12 41 -27 l28 -26 22 29 c13 16 23 32 23 36 0 5 -65 51 -145 103
l-145 94 -6 -30 c-10 -44 -18 -47 -45 -16 -15 18 -38 30 -62 34 -23 3 -50 18
-72 39 -28 26 -53 37 -115 52 -70 16 -80 21 -78 39 2 18 -7 23 -62 37 -84 21
-82 22 -95 -20 -13 -39 -11 -39 -108 -18 -29 6 -34 4 -39 -15 -7 -29 -21 -26
-29 7 -24 103 -30 115 -67 128 -36 13 -37 12 -37 -12 0 -13 -5 -24 -12 -24 -7
0 -54 16 -106 36 -83 32 -94 35 -105 21 -7 -9 -30 -19 -52 -23 l-40 -7 78 85
c47 52 75 91 71 99 -3 8 -21 27 -41 43 -32 28 -37 29 -69 17 -32 -12 -36 -11
-54 11 -11 13 -19 26 -20 31 0 15 -17 6 -38 -23z" style="fill: rgb(176, 57, 103);"></path>
<path class="node" id="node6" d="M1420 2399 c0 -5 5 -7 10 -4 6 3 10 8 10 11 0 2 -4 4 -10 4 -5 0 -10
-5 -10 -11z" style="fill: rgb(176, 57, 103);"></path>
<path class="node" id="node7" d="M2069 2263 c-18 -47 -9 -58 46 -59 59 -1 85 10 85 35 0 25 -58 47
-67 26 -7 -21 -20 -19 -26 5 -7 28 -26 25 -38 -7z" style="fill: rgb(176, 57, 103);"></path>
<path class="node" id="node8" d="M2120 2121 c0 -5 7 -12 16 -15 22 -9 24 -8 24 9 0 8 -9 15 -20 15
-11 0 -20 -4 -20 -9z" style="fill: rgb(176, 57, 103);"></path>
<path class="node" id="node9" d="M515 1979 c-4 -6 -5 -13 -2 -16 7 -7 27 6 27 18 0 12 -17 12 -25 -2z" style="fill: rgb(176, 57, 103);"></path>
<path class="node" id="node10" d="M2788 1953 c-21 -5 -24 -23 -5 -23 7 0 22 7 33 15 20 15 9 18 -28 8z" style="fill: rgb(176, 57, 103);"></path>
<path class="node" id="node11" d="M970 1940 c-9 -6 -10 -10 -3 -10 6 0 15 5 18 10 8 12 4 12 -15 0z" style="fill: rgb(176, 57, 103);"></path>
<path class="node" id="node12" d="M2107 1293 c-3 -10 -9 -37 -12 -61 -7 -42 -6 -43 14 -31 17 11 19 20
14 59 -7 53 -9 58 -16 33z" style="fill: rgb(176, 57, 103);"></path>
<path class="node" id="node13" d="M2090 1155 c0 -8 5 -15 10 -15 6 0 10 7 10 15 0 8 -4 15 -10 15 -5 0
-10 -7 -10 -15z" style="fill: rgb(176, 57, 103);"></path>
<path class="node" id="node14" d="M120 1110 c20 -13 33 -13 25 0 -3 6 -14 10 -23 10 -15 0 -15 -2 -2
-10z" style="fill: rgb(176, 57, 103);"></path>
<path class="node" id="node15" d="M2082 1075 c-17 -38 -15 -44 14 -42 16 1 33 12 43 27 10 16 11 21 3
16 -8 -5 -20 -2 -31 8 -16 15 -19 14 -29 -9z" style="fill: rgb(176, 57, 103);"></path>
<path class="node" id="node16" d="M2057 993 c-4 -3 -7 -17 -7 -30 0 -24 -64 -73 -96 -73 -9 0 -31 -9
-49 -20 -24 -15 -32 -26 -28 -40 6 -24 23 -16 23 11 0 20 16 26 22 8 2 -7 11
-5 23 7 11 12 20 15 22 8 3 -8 18 -6 51 6 40 15 48 23 53 51 3 19 7 39 9 44 7
28 -7 45 -23 28z" style="fill: rgb(176, 57, 103);"></path>
<path class="node" id="node17" d="M1695 970 c-3 -5 -2 -10 4 -10 5 0 13 5 16 10 3 6 2 10 -4 10 -5 0
-13 -4 -16 -10z" style="fill: rgb(176, 57, 103);"></path>
<path class="node" id="node18" d="M470 843 c1 -10 36 -53 44 -53 4 0 0 14 -9 30 -14 27 -35 41 -35 23z" style="fill: rgb(176, 57, 103);"></path>
<path class="node" id="node19" d="M530 770 c0 -5 6 -10 14 -10 8 0 18 5 21 10 3 6 -3 10 -14 10 -12 0
-21 -4 -21 -10z" style="fill: rgb(176, 57, 103);"></path>
<path class="node" id="node20" d="M1700 669 c0 -5 5 -7 10 -4 6 3 10 8 10 11 0 2 -4 4 -10 4 -5 0 -10
-5 -10 -11z" style="fill: rgb(176, 57, 103);"></path>
<path class="node" id="node21" d="M1471 617 c-6 -8 -8 -23 -4 -33 6 -15 8 -14 15 11 9 34 5 41 -11 22z" style="fill: rgb(176, 57, 103);"></path>
<path class="node" id="node22" d="M1500 589 c0 -5 5 -7 10 -4 6 3 10 8 10 11 0 2 -4 4 -10 4 -5 0 -10
-5 -10 -11z" style="fill: rgb(176, 57, 103);"></path>
<path class="node" id="node23" d="M1694 556 c-3 -8 -4 -29 -2 -48 2 -25 8 -34 26 -36 21 -3 32 -22 12
-22 -20 0 -9 -21 16 -30 21 -8 24 -13 14 -25 -12 -15 -6 -35 11 -35 6 0 8 20
5 49 -4 49 -29 91 -54 91 -9 0 -11 9 -6 35 6 35 -10 51 -22 21z" style="fill: rgb(176, 57, 103);"></path>
<path class="node" id="node24" d="M990 414 c0 -31 23 -28 28 4 2 15 -2 22 -12 22 -11 0 -16 -9 -16 -26z" style="fill: rgb(176, 57, 103);"></path>
<path class="node" id="node25" d="M1720 385 c-8 -9 -8 -15 -2 -15 12 0 26 19 19 26 -2 2 -10 -2 -17
-11z" style="fill: rgb(176, 57, 103);"></path>
<path class="node" id="node26" d="M1589 340 c-19 -16 -41 -29 -50 -30 -9 0 -20 -7 -23 -16 -4 -9 -13
-14 -21 -10 -21 8 -20 -28 2 -54 10 -11 29 -20 43 -20 14 0 31 -5 37 -11 14
-14 33 -3 33 19 0 9 7 25 15 36 8 11 12 30 8 46 -3 15 0 31 6 34 15 10 14 23
-3 29 -7 3 -29 -8 -47 -23z" style="fill: rgb(176, 57, 103);"></path>
<path class="node" id="node27" d="M1289 331 c11 -16 29 -48 40 -72 18 -43 65 -99 83 -99 7 0 28 41 28
56 0 2 -11 9 -25 14 -14 5 -31 25 -39 45 -8 19 -20 35 -27 35 -6 0 -20 11 -31
25 -11 14 -26 25 -34 25 -12 0 -11 -6 5 -29z" style="fill: rgb(176, 57, 103);"></path>
<path class="node" id="node28" d="M1330 351 c0 -6 4 -13 10 -16 6 -3 7 1 4 9 -7 18 -14 21 -14 7z" style="fill: rgb(176, 57, 103);"></path>
<path class="node" id="node29" d="M1800 260 c0 -5 5 -10 10 -10 6 0 10 5 10 10 0 6 -4 10 -10 10 -5 0
-10 -4 -10 -10z" style="fill: rgb(176, 57, 103);"></path>
<path class="node" id="node30" d="M1678 233 c-10 -2 -18 -13 -18 -23 0 -14 5 -18 17 -13 12 5 15 2 10
-9 -3 -10 1 -19 10 -22 23 -9 28 0 15 28 -7 17 -7 27 1 35 12 12 -1 13 -35 4z" style="fill: rgb(176, 57, 103);"></path>
<path class="node" id="node31" d="M1876 222 c6 -4 13 -15 17 -25 4 -9 10 -16 14 -15 4 1 25 -6 47 -15
33 -14 38 -21 34 -42 -4 -17 -1 -25 9 -25 7 0 22 -6 34 -12 17 -11 22 -10 33
5 18 24 41 21 60 -8 9 -14 26 -25 38 -25 20 0 20 1 5 13 -9 6 -20 21 -24 33
-13 34 -85 91 -124 98 -22 4 -48 2 -63 -5 -24 -11 -28 -10 -42 9 -8 12 -23 22
-32 22 -10 0 -13 -3 -6 -8z" style="fill: rgb(176, 57, 103);"></path>
<path class="node" id="node32" d="M1435 142 c11 -10 136 -35 143 -27 5 4 -55 21 -113 31 -27 4 -37 3
-30 -4z" style="fill: rgb(176, 57, 103);"></path>
<path class="node" id="node33" d="M1640 106 c0 -9 30 -14 35 -6 4 6 -3 10 -14 10 -12 0 -21 -2 -21 -4z" style="fill: rgb(176, 57, 103);"></path>
<path class="node" id="node34" d="M1750 90 c-9 -6 -10 -10 -3 -10 6 0 15 5 18 10 8 12 4 12 -15 0z" style="fill: rgb(176, 57, 103);"></path>
</g>
<g transform="translate(0.000000,258.000000) scale(0.100000,-0.100000)" fill="#FFFFFF" stroke="none">

</g>
</svg>