<svg xmlns="http://www.w3.org/2000/svg" version="1.0" width="1280.000000pt" height="1005.000000pt" viewBox="0 0 1280.000000 1005.000000" preserveAspectRatio="xMidYMid meet">
<metadata>
Created by potrace 1.15, written by Peter Selinger 2001-2017
</metadata>
<g transform="translate(0.000000,1005.000000) scale(0.100000,-0.100000)" fill="#b03967" stroke="none">
<path d="M4104 10038 c-69 -97 -42 -137 74 -113 90 19 94 21 90 51 -3 30 -10 34 -83 58 -60 19 -70 20 -81 4z"/>
<path d="M4381 9919 c-30 -21 -66 -39 -80 -39 -53 0 -71 -11 -83 -51 -6 -22 -17 -44 -25 -50 -17 -15 -17 -73 1 -88 9 -8 21 -8 40 -1 18 7 37 6 63 -3 35 -11 38 -15 43 -57 5 -43 8 -46 60 -73 52 -27 61 -28 165 -25 l110 3 3 -32 c4 -37 -11 -43 -44 -18 -25 19 -68 19 -85 -1 -10 -13 -29 -15 -93 -12 l-81 3 -3 -28 c-4 -35 17 -60 74 -88 57 -27 67 -47 58 -115 -9 -73 10 -104 64 -104 37 0 82 28 82 50 0 13 41 50 56 50 7 0 19 -12 26 -27 10 -22 22 -29 54 -34 55 -7 84 -28 98 -69 9 -28 17 -36 41 -38 17 -2 77 -18 135 -37 58 -19 147 -41 198 -49 92 -13 94 -15 142 -62 27 -27 65 -63 85 -81 26 -23 35 -39 35 -63 0 -19 19 -66 46 -117 44 -80 47 -91 54 -186 4 -56 3 -121 -3 -146 -8 -37 -7 -46 8 -57 13 -10 25 -9 62 3 119 41 217 -30 230 -166 7 -70 20 -82 76 -69 23 5 75 7 115 3 111 -10 207 -8 228 5 37 23 76 91 70 119 -4 14 -8 32 -9 39 -1 8 15 19 37 27 43 15 56 29 56 62 0 16 8 24 28 29 15 3 51 17 80 31 l52 26 63 -18 c34 -9 70 -22 81 -27 10 -5 45 -14 79 -18 76 -11 92 -27 92 -90 0 -58 23 -88 76 -99 31 -6 34 -10 36 -46 1 -22 2 -46 2 -53 1 -7 19 -19 41 -28 46 -19 80 -56 80 -89 0 -34 20 -44 85 -42 45 2 72 -4 106 -20 25 -13 64 -23 88 -23 34 0 52 -8 96 -41 67 -51 122 -62 154 -30 11 11 21 27 21 34 0 21 -42 55 -85 69 -37 12 -40 16 -43 53 -4 70 -11 85 -35 85 -29 0 -46 14 -80 68 -26 40 -30 42 -70 40 l-42 -3 -5 45 c-8 59 -30 100 -77 139 -72 61 -79 69 -105 122 -46 93 -46 112 1 158 43 42 53 81 31 122 -6 10 -60 44 -119 74 -106 53 -109 55 -127 102 -35 99 -53 132 -90 173 -40 44 -102 79 -141 80 -14 0 -42 23 -80 67 -32 37 -77 86 -100 109 l-42 42 -113 -1 -113 -2 -130 63 c-150 73 -142 68 -189 105 -29 24 -53 31 -138 43 -126 18 -132 19 -188 54 -25 15 -56 31 -70 35 -13 4 -36 17 -51 27 -56 42 -171 31 -190 -19 -5 -13 -9 -35 -9 -49 0 -20 -9 -29 -42 -44 -24 -11 -56 -20 -71 -20 -20 0 -39 -11 -64 -39 -19 -22 -46 -42 -60 -46 -22 -5 -24 -10 -19 -38 3 -18 2 -37 -2 -43 -12 -19 -49 -34 -82 -34 -97 0 -168 106 -191 284 -15 114 -48 235 -68 245 -9 5 -34 13 -55 17 -22 4 -55 17 -74 30 -20 14 -50 24 -71 24 -20 1 -47 7 -61 15 -36 21 -49 18 -109 -26z"/>
<path d="M5028 9879 c-23 -13 -23 -28 1 -54 11 -11 31 -32 45 -47 18 -20 35 -28 60 -28 41 0 50 10 41 50 -12 54 -106 104 -147 79z"/>
<path d="M7153 9655 c-51 -22 -71 -86 -37 -119 23 -23 98 -20 145 6 65 36 63 74 -5 107 -49 24 -60 25 -103 6z"/>
<path d="M7732 9508 c-35 -35 1 -78 64 -78 38 0 44 3 50 25 9 37 -19 65 -66 65 -20 0 -41 -5 -48 -12z"/>
<path d="M7933 9424 c-3 -8 0 -33 6 -55 9 -31 18 -40 44 -47 21 -5 41 -22 58 -47 30 -44 62 -60 90 -45 25 14 26 74 2 95 -129 110 -185 138 -200 99z"/>
<path d="M8266 9182 c-20 -38 -31 -111 -22 -145 3 -14 15 -27 27 -30 30 -8 75 17 83 46 8 34 -11 94 -43 130 l-28 31 -17 -32z"/>
<path d="M8015 9126 c-15 -22 -15 -27 -1 -55 9 -16 16 -39 16 -50 0 -26 -29 -54 -49 -46 -11 4 -30 -9 -61 -45 -54 -61 -100 -74 -154 -45 -33 18 -34 18 -70 -5 -31 -18 -46 -21 -87 -16 -27 3 -71 9 -99 12 -62 8 -80 -5 -80 -56 0 -45 35 -80 81 -80 16 0 63 -12 105 -26 61 -21 88 -26 138 -22 70 6 180 52 231 97 19 16 48 32 67 36 49 11 74 31 118 97 33 49 40 69 40 108 0 52 -9 65 -55 76 -17 4 -41 15 -54 26 -33 25 -67 23 -86 -6z"/>
<path d="M7164 8906 c-3 -8 -4 -25 -2 -38 2 -19 10 -24 40 -26 30 -3 38 1 43 18 13 42 -66 86 -81 46z"/>
<path d="M8599 8873 c-1 -5 0 -18 1 -31 1 -12 -10 -36 -24 -53 -14 -17 -26 -35 -26 -40 0 -12 37 -49 49 -49 15 0 41 -66 41 -103 0 -47 28 -67 93 -67 40 0 53 5 78 29 49 49 38 96 -38 167 -23 22 -43 50 -43 61 0 23 -24 47 -57 57 -11 4 -27 13 -33 21 -13 16 -39 20 -41 8z"/>
<path d="M7290 8820 c-14 -26 -1 -44 26 -38 13 2 19 12 19 28 0 32 -30 38 -45 10z"/>
<path d="M8927 8593 c-16 -15 -6 -61 18 -83 15 -14 25 -35 25 -52 0 -15 9 -37 19 -47 21 -21 97 -37 135 -27 30 7 40 43 20 74 -16 24 -20 26 -66 36 -16 4 -29 15 -34 29 -15 48 -44 77 -78 77 -18 0 -36 -3 -39 -7z"/>
<path d="M5437 8378 c-84 -91 -94 -107 -77 -138 14 -25 26 -25 75 1 22 12 60 25 84 28 54 7 81 39 88 103 7 63 -8 88 -55 88 -33 0 -44 -8 -115 -82z"/>
<path d="M9236 8424 c-9 -9 -16 -32 -16 -54 0 -30 6 -43 31 -64 17 -14 34 -26 38 -26 4 0 27 -18 52 -40 24 -22 61 -45 81 -52 33 -10 41 -9 58 7 27 24 26 61 -2 76 -13 6 -48 35 -78 64 -54 52 -125 105 -141 105 -4 0 -15 -7 -23 -16z"/>
<path d="M9042 8288 c-7 -7 -12 -23 -12 -36 0 -13 -8 -37 -17 -54 -18 -29 -18 -30 6 -49 28 -23 36 -24 53 -3 7 9 27 30 45 47 37 35 33 55 -20 87 -38 23 -39 24 -55 8z"/>
<path d="M7802 8198 c-30 -30 -5 -88 38 -88 26 0 30 4 30 28 0 31 -25 72 -44 72 -6 0 -17 -5 -24 -12z"/>
<path d="M9627 8163 c-4 -3 -7 -30 -7 -58 0 -42 6 -60 29 -93 36 -49 45 -55 72 -47 35 11 39 45 13 95 -13 25 -24 54 -24 65 0 12 -5 26 -12 33 -13 13 -60 16 -71 5z"/>
<path d="M8130 8100 c-38 -38 -18 -71 38 -63 44 7 59 36 32 63 -25 25 -45 25 -70 0z"/>
<path d="M9416 8051 c-4 -5 -4 -16 -1 -23 3 -8 1 -27 -5 -42 -14 -38 2 -63 53 -87 54 -24 94 -24 135 1 28 17 33 25 30 53 -3 31 -5 32 -58 38 -61 7 -86 17 -114 48 -21 23 -32 26 -40 12z"/>
<path d="M7707 8024 c-12 -12 -8 -79 5 -92 15 -15 72 -16 99 -2 38 21 13 72 -41 82 -14 3 -32 8 -41 12 -8 4 -18 3 -22 0z"/>
<path d="M7812 7888 c-35 -35 8 -79 58 -58 33 14 45 37 29 56 -14 17 -71 18 -87 2z"/>
<path d="M9744 7804 c-9 -36 3 -95 23 -115 26 -24 130 -10 156 22 26 33 16 44 -41 47 -44 3 -57 8 -86 38 -18 18 -36 34 -39 34 -4 0 -10 -11 -13 -26z"/>
<path d="M8006 7734 c-22 -21 -20 -37 7 -62 29 -27 53 -28 67 -3 14 28 13 38 -10 61 -24 24 -43 25 -64 4z"/>
<path d="M6132 7723 c-23 -21 -52 -93 -52 -131 0 -15 -10 -45 -21 -67 -39 -72 -51 -119 -58 -232 -6 -100 -10 -115 -36 -153 -26 -37 -27 -44 -17 -74 17 -46 15 -60 -14 -117 -36 -73 -77 -203 -114 -369 -39 -173 -59 -208 -150 -262 -119 -70 -205 -61 -275 30 -25 34 -60 64 -95 83 -30 16 -91 65 -135 109 -59 58 -97 87 -146 109 -76 34 -85 44 -102 102 -11 38 -17 45 -52 55 -38 10 -75 51 -75 81 0 7 29 45 65 85 66 75 74 95 51 137 -34 60 21 127 102 124 61 -2 74 9 66 58 -5 32 -2 43 20 69 14 18 26 36 26 42 0 5 -16 26 -35 45 -31 31 -39 34 -73 29 -75 -13 -77 -12 -80 14 -5 36 -16 43 -51 35 -19 -4 -37 -18 -48 -36 -10 -16 -28 -32 -40 -35 -25 -7 -97 15 -193 58 -36 16 -86 33 -112 38 -29 6 -66 24 -99 49 -82 62 -179 77 -194 30 -11 -32 4 -56 45 -73 21 -8 41 -20 45 -26 13 -20 -17 -71 -54 -91 -20 -11 -49 -28 -64 -37 -28 -17 -28 -17 -48 11 -26 34 -42 34 -74 -1 -16 -18 -51 -37 -96 -52 -93 -32 -122 -66 -117 -141 3 -55 1 -58 -56 -75 -21 -7 -32 -19 -41 -44 -7 -22 -25 -44 -48 -59 -20 -13 -37 -31 -37 -40 0 -17 32 -85 52 -113 19 -26 -1 -51 -47 -60 -31 -7 -45 -4 -81 17 -51 30 -59 31 -91 5 -14 -11 -31 -20 -38 -20 -11 0 -35 40 -86 145 -11 22 -23 47 -28 55 -4 8 -38 30 -75 49 -81 41 -105 37 -139 -21 -36 -62 -60 -80 -114 -85 -60 -7 -77 -22 -118 -104 -39 -77 -47 -84 -100 -92 -55 -8 -92 -51 -100 -114 -3 -26 -10 -58 -15 -70 -13 -31 -73 -54 -121 -47 -47 8 -59 -11 -34 -54 16 -27 16 -31 0 -63 -38 -74 -72 -88 -102 -42 -13 20 -17 44 -16 85 2 50 0 58 -15 58 -25 0 -67 -46 -87 -95 -9 -22 -27 -52 -41 -66 -29 -30 -44 -77 -44 -137 0 -59 -8 -70 -98 -145 -64 -52 -85 -78 -117 -138 -58 -113 -73 -129 -144 -163 -62 -29 -73 -31 -192 -32 -128 -1 -149 -5 -149 -28 0 -30 -34 -46 -88 -39 -63 7 -108 -9 -128 -48 -18 -36 -48 -43 -130 -35 -53 5 -71 3 -103 -13 -22 -11 -57 -23 -80 -27 -30 -5 -54 -19 -94 -58 -33 -32 -86 -68 -140 -94 -77 -38 -93 -51 -129 -103 -42 -60 -61 -71 -72 -44 -8 23 -34 18 -51 -9 -13 -19 -15 -38 -9 -84 7 -68 -4 -101 -76 -217 -53 -86 -61 -138 -32 -211 44 -110 47 -271 6 -305 -22 -18 -32 -3 -39 59 -8 74 -18 91 -42 76 -15 -10 -17 -23 -15 -88 3 -64 1 -76 -12 -76 -9 0 -21 9 -28 20 -7 11 -21 20 -30 20 -31 0 -24 -78 11 -120 57 -70 64 -95 58 -203 l-5 -99 39 -76 c53 -104 57 -128 25 -172 -14 -19 -33 -46 -43 -60 -25 -34 -29 -159 -9 -293 27 -182 18 -250 -46 -349 -22 -34 -47 -80 -55 -102 -19 -56 -37 -72 -99 -92 -106 -33 -126 -106 -40 -149 15 -8 21 -20 21 -44 1 -43 21 -57 98 -65 66 -7 336 17 365 33 10 5 26 18 36 30 19 21 113 61 144 61 9 0 42 16 72 35 42 27 65 35 101 35 25 0 66 7 90 16 34 12 67 14 144 10 55 -3 165 -7 245 -8 168 -3 142 -14 294 124 77 71 94 82 138 89 33 5 61 18 84 38 19 17 45 31 58 31 12 0 45 15 72 33 43 28 58 32 131 36 68 2 92 -1 135 -19 51 -21 55 -21 123 -6 41 9 122 42 194 79 l124 62 161 6 c89 3 178 12 198 19 32 11 40 11 63 -4 14 -10 35 -37 45 -62 11 -24 21 -45 22 -45 2 -1 71 -6 153 -13 l150 -11 10 -32 c6 -18 23 -45 38 -61 31 -33 33 -39 11 -63 -15 -16 -14 -23 5 -79 23 -66 31 -219 17 -291 -6 -28 -4 -40 10 -53 16 -17 19 -16 57 28 21 26 56 55 77 66 33 17 39 25 42 57 3 42 7 45 153 106 66 28 83 40 97 68 24 46 50 66 99 74 53 9 66 -5 34 -35 -17 -16 -25 -34 -25 -56 0 -42 -30 -77 -95 -112 -36 -19 -53 -36 -60 -58 -5 -17 -21 -44 -35 -62 -14 -17 -33 -42 -42 -56 -12 -16 -30 -26 -49 -28 -35 -3 -56 -26 -46 -52 5 -12 19 -16 57 -16 75 0 105 19 136 90 18 42 42 70 60 70 8 0 21 -12 31 -26 16 -26 16 -28 -16 -90 -21 -41 -45 -71 -67 -85 -36 -22 -41 -47 -8 -40 60 13 68 9 81 -49 16 -70 5 -113 -43 -168 -31 -37 -35 -47 -30 -77 4 -19 22 -52 41 -75 19 -23 37 -58 41 -78 10 -54 20 -69 67 -96 57 -32 92 -39 134 -25 37 12 59 1 144 -72 23 -19 52 -33 77 -36 37 -5 44 -2 89 39 61 57 87 71 122 63 27 -6 41 3 133 76 42 34 58 14 58 -71 0 -59 3 -70 26 -94 15 -14 44 -31 66 -38 35 -10 41 -9 66 11 60 48 120 83 170 97 47 14 56 21 74 59 13 26 32 48 47 54 51 20 149 28 218 17 98 -14 156 -13 187 4 20 10 41 42 73 110 67 143 67 142 128 185 37 26 66 57 85 91 16 29 44 61 62 72 47 30 98 85 243 267 164 205 169 211 235 253 83 53 292 237 336 295 22 28 81 101 133 162 88 103 140 190 157 261 11 49 32 81 82 131 43 43 51 59 72 133 19 72 21 99 16 176 -6 77 -4 98 13 141 34 88 42 157 32 315 -8 143 -9 149 -42 204 -19 31 -67 89 -107 129 -82 82 -82 78 -61 224 13 92 13 94 -9 111 -12 10 -47 22 -77 25 -87 11 -109 42 -126 178 -5 43 -21 108 -34 144 -14 36 -25 85 -25 109 0 44 -1 45 -52 68 -58 25 -81 47 -97 89 -11 28 -15 31 -65 42 -31 7 -116 90 -143 139 -19 36 -12 166 12 223 20 48 19 82 -5 134 -17 39 -20 66 -20 253 l0 209 -44 41 c-30 28 -46 51 -48 71 -4 42 -35 44 -107 4 -82 -45 -96 -38 -88 49 3 37 12 92 20 122 11 41 12 70 5 115 -5 33 -12 98 -16 145 -7 69 -13 92 -36 125 -23 34 -27 46 -21 83 8 56 0 79 -35 97 -38 20 -63 19 -88 -2z"/>
<path d="M7851 7653 c-47 -38 6 -69 74 -43 20 7 26 16 23 33 -4 30 -64 36 -97 10z"/>
<path d="M3888 7633 c-15 -19 -5 -57 19 -67 11 -6 28 -25 37 -43 19 -39 43 -42 108 -14 86 37 136 103 96 128 -21 13 -248 10 -260 -4z"/>
<path d="M8162 7588 c-7 -7 -12 -22 -12 -35 0 -13 -6 -23 -12 -23 -18 -1 40 -50 58 -50 8 0 33 17 56 38 51 48 48 72 -11 72 -22 0 -45 2 -53 5 -7 3 -19 0 -26 -7z"/>
<path d="M9444 7549 c-3 -6 -1 -21 6 -33 9 -17 18 -22 37 -18 30 6 40 27 23 47 -15 17 -56 20 -66 4z"/>
<path d="M9417 7343 c-3 -4 0 -24 7 -43 14 -43 47 -52 70 -18 25 36 21 57 -11 56 -16 -1 -35 2 -44 6 -10 4 -19 4 -22 -1z"/>
<path d="M10557 6810 c-16 -13 -29 -37 -35 -67 -12 -54 -2 -88 27 -98 24 -7 74 17 95 47 19 26 21 109 4 126 -18 18 -62 14 -91 -8z"/>
<path d="M10600 6600 c-22 -22 -24 -29 -11 -49 5 -8 16 -11 29 -7 28 9 74 54 67 66 -11 17 -64 11 -85 -10z"/>
<path d="M10673 6507 c-18 -12 -32 -29 -30 -37 6 -41 87 -8 87 35 0 30 -14 30 -57 2z"/>
<path d="M12665 6485 c-42 -41 -29 -145 18 -145 40 0 117 80 117 122 0 51 -92 67 -135 23z"/>
<path d="M12505 6329 c-11 -5 -47 -31 -80 -57 -52 -42 -60 -54 -63 -87 -4 -43 13 -91 34 -99 22 -8 133 18 189 45 39 19 52 31 59 56 12 45 -23 115 -68 137 -38 18 -43 18 -71 5z"/>
<path d="M9742 6158 c-28 -28 0 -88 41 -88 17 0 37 29 37 54 0 36 -53 59 -78 34z"/>
<path d="M12473 6000 c-29 -13 -43 -25 -43 -39 0 -24 19 -31 65 -24 39 6 71 42 61 68 -7 20 -31 18 -83 -5z"/>
<path d="M9700 5821 c-17 -32 -12 -54 25 -115 19 -31 37 -74 41 -93 5 -26 21 -50 57 -82 27 -25 62 -65 78 -88 16 -23 45 -50 63 -58 25 -12 40 -30 55 -64 11 -26 26 -52 33 -58 15 -11 148 -11 166 0 21 14 14 77 -13 113 -42 56 -84 79 -140 79 l-50 0 -6 70 c-8 102 -39 145 -104 145 -49 0 -95 50 -95 102 0 57 -85 95 -110 49z"/>
<path d="M10257 5212 c-28 -30 -21 -50 18 -58 43 -8 67 9 63 45 -2 21 -9 27 -34 29 -20 2 -36 -3 -47 -16z"/>
<path d="M10199 2575 c-28 -15 -76 -111 -86 -168 -6 -39 8 -54 57 -59 40 -4 54 -32 20 -43 -48 -15 -59 -64 -60 -271 0 -11 -33 -59 -74 -107 -41 -48 -83 -99 -94 -115 -23 -31 -42 -42 -127 -73 -67 -24 -155 -102 -155 -137 0 -14 18 -33 58 -59 35 -23 58 -46 60 -59 7 -50 -78 -138 -166 -174 -42 -16 -57 -51 -40 -88 17 -35 49 -38 144 -17 87 19 176 79 231 157 34 47 36 48 90 48 75 0 93 11 93 60 0 34 6 43 55 85 39 33 58 59 67 87 18 61 39 70 139 59 102 -12 133 1 165 68 23 48 38 61 72 61 17 0 27 10 38 38 9 20 28 50 42 65 23 24 27 37 27 90 l0 62 -35 -1 c-20 0 -53 -12 -75 -27 -71 -47 -172 -60 -205 -27 -25 25 -25 45 -1 69 47 47 57 119 19 145 -36 26 -54 19 -95 -33 -21 -28 -44 -52 -51 -55 -38 -16 -43 34 -7 70 38 38 46 59 44 126 -1 35 2 83 6 108 l7 45 -52 43 c-57 45 -71 49 -111 27z"/>
<path d="M3688 2451 c-48 -7 -88 -33 -88 -58 0 -9 17 -13 58 -14 31 -1 61 -1 65 0 5 1 35 4 68 8 60 6 87 25 71 50 -9 14 -115 23 -174 14z"/>
<path d="M5110 1585 c-27 -44 -31 -93 -9 -108 25 -16 68 1 89 36 25 40 25 69 2 90 -30 27 -58 21 -82 -18z"/>
<path d="M4430 1579 c-56 -38 -59 -63 -9 -67 30 -3 44 3 74 31 70 64 18 92 -65 36z"/>
<path d="M9304 1416 c-41 -20 -84 -55 -127 -101 -35 -38 -91 -85 -123 -104 -122 -71 -160 -99 -179 -134 -22 -42 -38 -50 -120 -66 -53 -9 -65 -16 -99 -56 -21 -25 -45 -45 -53 -45 -9 0 -39 -13 -67 -29 -28 -17 -96 -41 -151 -56 -75 -19 -116 -36 -165 -69 -95 -64 -117 -73 -197 -78 -94 -7 -156 -41 -173 -95 -15 -47 -34 -63 -76 -63 -20 0 -45 -11 -69 -30 -21 -17 -50 -33 -64 -35 -14 -3 -44 -11 -66 -18 -36 -11 -41 -17 -51 -57 l-11 -45 -47 3 c-46 4 -46 3 -65 -40 -18 -40 -18 -44 -2 -56 11 -9 31 -11 62 -7 43 6 47 4 77 -29 17 -20 38 -49 47 -65 8 -16 24 -33 35 -36 42 -13 239 64 362 141 21 13 63 34 93 45 41 15 65 33 93 67 67 83 126 144 153 157 14 8 44 29 66 48 31 25 54 36 92 40 61 7 103 28 139 69 26 29 29 30 92 24 36 -3 82 -1 102 4 31 9 39 18 54 56 18 47 85 114 113 114 43 0 91 23 107 49 23 39 86 78 167 102 48 15 73 29 87 49 11 16 35 38 53 49 19 11 39 32 45 46 7 15 30 33 56 44 24 11 51 30 60 42 22 32 20 82 -4 104 -21 19 -37 18 -112 -12 -59 -22 -72 -13 -56 39 11 36 6 69 -9 67 -4 -1 -36 -15 -69 -33z"/>
<path d="M4497 1383 c-8 -10 -36 -58 -61 -106 -43 -81 -46 -92 -40 -138 7 -49 6 -50 -35 -88 l-41 -38 6 -64 c4 -35 8 -66 10 -68 2 -2 -6 -21 -18 -42 -44 -78 4 -90 127 -30 101 49 225 100 289 117 61 17 73 27 87 75 14 46 31 62 82 79 41 13 55 35 77 122 16 62 43 103 77 120 17 8 28 21 28 33 0 27 -54 32 -112 10 -28 -11 -56 -15 -81 -10 -32 5 -44 1 -87 -30 -63 -44 -99 -46 -120 -5 -16 32 -49 55 -65 45 -5 -3 -31 3 -56 14 -56 25 -48 25 -67 4z"/>
<path d="M7387 122 c-10 -10 -17 -24 -17 -31 0 -7 -16 -19 -35 -27 -41 -17 -43 -24 -14 -50 20 -18 21 -18 57 4 20 12 54 29 75 38 23 10 37 23 37 34 0 46 -71 67 -103 32z"/>
</g>
</svg>