<svg version="1.0" xmlns="http://www.w3.org/2000/svg" width="300" height="300" viewBox="0 0 300.000000 235.000000" preserveAspectRatio="xMidYMid " class="svg" style="width: 256px; height: 256px;">
<metadata>
  <rdf:rdf xmlns:rdf="http://www.w3.org/1999/02/22-rdf-syntax-ns#" xmlns:rdfs="http://www.w3.org/2000/01/rdf-schema#" xmlns:dc="http://purl.org/dc/elements/1.1/">
    <rdf:description dc:title="europe map" dc:publisher="Hiox" dc:date="2015-04-24" dc:format="image/svg+xml" dc:language="en">
      <dc:creator>
        <rdf:bag>
          <rdf:li>svgimages.com</rdf:li>
        </rdf:bag>
      </dc:creator>
    </rdf:description>
  </rdf:rdf>
</metadata>
<g transform="translate(0.000000,235.000000) scale(0.100000,-0.100000)" fill="#D1A05B" stroke="none">
<path class="node" id="node1" d="M2310 2311 c-17 -5 -21 -9 -12 -15 19 -11 14 -36 -7 -36 -11 0 -29
-14 -41 -30 -12 -17 -25 -28 -30 -25 -14 9 -57 -34 -63 -62 -7 -35 -50 -83
-74 -83 -11 0 -23 12 -30 30 -11 28 -38 49 -49 37 -3 -3 6 -27 20 -55 26 -51
25 -62 -4 -62 -9 0 -22 -10 -27 -23 -9 -19 -7 -28 8 -48 26 -34 24 -41 -11
-35 -16 3 -45 9 -62 12 l-33 6 29 -31 c22 -22 27 -34 19 -42 -8 -8 -17 -8 -31
0 -11 6 -32 11 -46 11 -23 0 -26 4 -26 33 0 25 -7 39 -30 55 -16 13 -30 29
-30 37 0 21 14 19 35 -5 41 -46 156 -14 155 43 -1 30 -73 73 -140 82 -38 5
-54 12 -57 25 -3 13 -14 17 -36 16 -28 -1 -32 2 -30 22 2 15 -3 22 -15 22 -10
0 -23 5 -30 12 -9 9 -16 7 -31 -6 -11 -10 -25 -15 -31 -11 -7 4 -24 -6 -41
-25 -22 -24 -36 -31 -57 -29 -16 2 -42 -5 -58 -16 -36 -23 -84 -70 -84 -83 0
-5 -9 -17 -20 -27 -11 -10 -20 -28 -20 -40 0 -16 -16 -34 -55 -60 -46 -32 -54
-42 -49 -62 5 -20 2 -23 -22 -24 -16 -1 -34 -1 -41 0 -6 1 -24 -10 -40 -24
-15 -14 -39 -34 -52 -46 -18 -16 -22 -27 -17 -51 3 -16 0 -39 -6 -51 -17 -31
-17 -79 0 -99 19 -23 71 -23 87 -1 7 10 29 18 49 20 l37 2 -7 -57 c-5 -47 -3
-60 10 -71 12 -10 15 -23 10 -46 -8 -43 8 -51 49 -27 17 10 40 17 50 15 20 -5
23 3 32 80 4 40 11 57 21 57 17 0 17 5 4 31 -10 17 -7 19 20 19 26 0 30 3 30
29 0 16 -7 34 -15 41 -33 27 -6 105 59 172 27 28 36 45 36 71 0 26 6 39 25 51
33 22 57 14 74 -25 12 -27 12 -36 -3 -65 -9 -19 -27 -39 -40 -45 -32 -15 -50
-57 -38 -90 5 -13 7 -40 5 -60 -5 -34 -3 -36 34 -50 34 -14 41 -13 68 2 48 29
106 33 134 11 l24 -19 -37 -7 c-20 -4 -40 -14 -43 -22 -3 -9 -20 -14 -48 -14
-53 0 -70 -17 -54 -53 16 -36 5 -60 -23 -51 -13 4 -26 11 -29 16 -10 16 -42
-44 -59 -111 -14 -55 -21 -68 -49 -83 -18 -10 -41 -16 -51 -13 -10 3 -48 -1
-85 -10 -80 -18 -75 -18 -75 -2 0 13 -40 15 -77 3 -25 -8 -63 19 -63 45 0 28
11 49 26 49 20 0 29 -27 14 -45 -10 -12 -9 -15 6 -15 14 0 24 13 35 45 9 25
16 45 15 45 -1 0 -16 -4 -35 -10 l-34 -9 6 52 5 53 -34 -4 c-26 -3 -38 -12
-50 -34 -9 -16 -13 -32 -10 -36 3 -3 2 -10 -3 -16 -5 -6 -5 -38 1 -75 11 -70
3 -85 -39 -74 -15 3 -23 1 -23 -7 0 -8 -9 -10 -24 -6 -14 3 -28 2 -31 -4 -3
-5 -14 -10 -24 -10 -21 0 -51 -30 -51 -52 0 -10 -17 -20 -47 -28 -27 -7 -55
-19 -63 -26 -8 -7 -32 -16 -53 -19 -31 -6 -44 -3 -67 14 -39 28 -74 29 -65 1
7 -23 -3 -25 -53 -11 -32 10 -33 9 -30 -17 2 -18 14 -34 36 -47 30 -18 32 -23
27 -58 -3 -21 0 -47 6 -58 9 -17 7 -25 -10 -43 -12 -12 -21 -29 -21 -38 0 -9
-7 -21 -15 -28 -8 -7 -15 -19 -15 -26 0 -17 -33 -11 -97 17 -23 11 -46 19 -52
19 -5 0 -31 11 -58 25 -41 22 -51 24 -76 14 -24 -10 -27 -16 -22 -39 3 -16 1
-31 -4 -35 -6 -3 -11 -17 -11 -31 0 -13 -15 -46 -34 -73 -28 -40 -36 -62 -42
-120 -4 -40 -13 -76 -20 -82 -21 -17 -17 -25 19 -39 58 -22 77 -33 77 -47 0
-7 3 -13 8 -13 172 -12 184 -11 200 3 9 9 29 18 44 22 15 4 32 13 39 21 6 8
18 14 25 14 9 0 14 12 14 35 0 19 5 35 10 35 6 0 24 14 42 30 17 17 42 30 56
30 13 0 40 9 58 21 26 16 34 28 34 49 0 60 55 74 132 34 36 -18 65 -18 76 2 6
10 25 16 57 17 53 2 55 0 70 -76 3 -15 12 -27 20 -27 9 0 20 -11 25 -25 5 -14
21 -30 35 -37 14 -6 25 -17 25 -25 0 -8 13 -22 30 -31 16 -9 30 -24 30 -33 0
-9 7 -23 16 -30 13 -10 15 -24 11 -61 -4 -31 -2 -48 6 -51 17 -5 47 37 47 66
0 54 24 74 50 42 13 -16 50 -21 50 -7 0 13 -37 54 -64 72 -38 24 -123 133
-141 178 -10 23 -22 42 -27 42 -15 0 -2 71 14 82 23 14 36 9 42 -17 4 -14 11
-25 16 -25 6 0 10 -9 10 -19 0 -23 83 -111 104 -111 8 0 31 -15 51 -33 l36
-33 -3 -84 c-3 -79 -2 -85 20 -96 12 -6 34 -22 48 -35 14 -13 31 -24 37 -24 7
0 13 -4 14 -10 1 -5 -11 -9 -27 -9 -30 2 -39 -9 -20 -21 6 -4 8 -15 5 -26 -5
-15 1 -23 29 -34 48 -20 59 -19 53 5 -3 12 0 20 8 20 8 0 11 8 8 21 -5 19 -4
20 15 10 12 -6 23 -7 26 -2 8 13 -11 61 -24 61 -5 0 -10 11 -10 24 0 14 -4 28
-10 31 -17 11 -11 24 15 31 14 3 25 12 25 19 0 8 17 16 40 20 34 6 44 13 60
46 17 32 26 39 49 39 40 0 52 20 57 92 3 35 11 69 19 78 8 9 15 24 15 32 0 9
7 18 15 22 8 3 15 12 15 20 0 15 48 46 70 46 5 0 10 -10 10 -21 0 -19 4 -21
31 -15 27 5 30 4 24 -12 -17 -41 -16 -49 5 -55 16 -4 33 4 61 30 45 41 49 53
14 53 -32 0 -32 15 3 49 58 58 189 62 380 10 57 -16 76 -18 88 -8 8 6 14 16
14 21 0 5 11 24 25 42 33 43 32 62 -4 81 -16 8 -32 24 -36 35 -3 11 -12 20
-19 20 -24 0 -48 58 -41 103 12 76 24 101 63 127 20 14 40 30 45 37 6 9 15 8
42 -3 51 -21 62 -18 108 27 35 33 47 40 70 35 15 -3 36 -2 45 3 9 5 30 15 45
22 40 19 31 44 -16 45 -21 0 -42 5 -49 12 -6 6 -23 8 -38 5 -25 -5 -29 -1 -45
41 -13 34 -23 46 -39 46 -11 0 -28 5 -36 10 -13 9 -11 13 10 29 20 16 22 21
11 35 -7 9 -26 16 -42 16 -28 0 -29 1 -29 54 0 45 -3 54 -20 59 -14 4 -20 14
-20 34 0 15 -9 39 -20 53 -11 14 -20 35 -20 47 0 15 -10 28 -29 37 -20 11 -39
36 -60 82 -27 57 -30 72 -22 103 5 20 11 64 13 98 3 62 3 62 -42 108 -46 46
-69 53 -130 36z" style="fill: rgb(176, 57, 103);"></path>
<path class="node" id="node2" d="M229 2165 c-8 -7 -30 -15 -49 -16 -19 -2 -38 -8 -42 -14 -4 -5 -17 0
-33 15 l-25 24 -20 -22 c-26 -27 -26 -45 0 -37 25 8 27 -13 3 -31 -17 -12 -16
-13 5 -14 24 0 32 -34 10 -43 -7 -3 2 -6 20 -6 17 -1 32 -5 32 -10 0 -5 11
-12 24 -15 28 -7 109 34 143 72 23 25 21 36 -9 72 -29 34 -44 40 -59 25z" style="fill: rgb(176, 57, 103);"></path>
<path class="node" id="node3" d="M655 1600 c-14 -22 -29 -40 -34 -40 -5 0 -11 -14 -13 -30 -3 -23 -1
-30 9 -26 16 7 18 -25 2 -41 -7 -7 -8 -19 -4 -30 4 -10 9 -25 10 -33 1 -8 3
-19 5 -25 7 -28 -1 -45 -23 -45 -29 0 -47 -18 -47 -47 0 -14 -6 -23 -15 -23
-28 0 -15 -28 17 -34 39 -8 35 -12 -32 -29 -30 -8 -56 -20 -58 -27 -3 -9 3
-11 21 -6 25 6 107 -6 157 -24 14 -5 40 -12 59 -15 28 -6 33 -5 28 8 -3 8 3
23 14 33 23 21 25 51 4 74 -10 11 -17 46 -20 104 -3 67 -9 94 -25 116 l-21 29
33 31 c32 29 32 31 14 45 -10 8 -24 16 -30 18 -8 3 -7 8 2 18 18 20 15 39 -8
39 -12 0 -29 -15 -45 -40z" style="fill: rgb(176, 57, 103);"></path>
<path class="node" id="node4" d="M474 1486 c-3 -8 -19 -19 -36 -25 -27 -9 -29 -14 -23 -38 5 -23 1
-32 -25 -53 -27 -22 -30 -30 -24 -54 7 -28 7 -29 68 -22 71 7 77 13 106 105
l22 65 -22 18 c-27 22 -59 23 -66 4z" style="fill: rgb(176, 57, 103);"></path>
<path class="node" id="node5" d="M928 596 c-20 -15 -23 -43 -8 -66 9 -13 11 -13 20 0 30 44 21 90 -12
66z" style="fill: rgb(176, 57, 103);"></path>
<path class="node" id="node6" d="M916 491 c-4 -5 -13 -8 -20 -5 -10 4 -15 -13 -19 -63 -7 -75 0 -92
35 -76 16 7 25 24 34 64 11 49 11 56 -5 73 -12 11 -21 14 -25 7z" style="fill: rgb(176, 57, 103);"></path>
<path class="node" id="node7" d="M615 450 c-8 -14 -7 -15 23 -25 20 -6 23 -4 20 11 -4 22 -33 31 -43
14z" style="fill: rgb(176, 57, 103);"></path>
<path class="node" id="node8" d="M1037 263 c-4 -3 -7 -16 -7 -28 0 -18 12 -25 75 -45 66 -21 77 -22
90 -9 20 21 8 69 -22 80 -28 10 -126 12 -136 2z" style="fill: rgb(176, 57, 103);"></path>
<path class="node" id="node9" d="M1570 72 c0 -4 25 -16 55 -27 48 -16 60 -17 97 -5 l43 13 -30 7 c-47
12 -165 20 -165 12z" style="fill: rgb(176, 57, 103);"></path>
</g>
<g transform="translate(0.000000,235.000000) scale(0.100000,-0.100000)" fill="#FFFFFF" stroke="none">

</g>
</svg>