<svg version="1.0" xmlns="http://www.w3.org/2000/svg" width="300" height="300" viewBox="0 0 260.000000 300.000000" preserveAspectRatio="xMidYMid " class="svg" style="width: 256px; height: 256px;">
<metadata>
  <rdf:rdf xmlns:rdf="http://www.w3.org/1999/02/22-rdf-syntax-ns#" xmlns:rdfs="http://www.w3.org/2000/01/rdf-schema#" xmlns:dc="http://purl.org/dc/elements/1.1/">
    <rdf:description dc:title="North America" dc:publisher="Hiox" dc:date="2015-04-24" dc:format="image/svg+xml" dc:language="en">
      <dc:creator>
        <rdf:bag>
          <rdf:li>svgimages.com</rdf:li>
        </rdf:bag>
      </dc:creator>
    </rdf:description>
  </rdf:rdf>
</metadata>
<g transform="translate(0.000000,300.000000) scale(0.100000,-0.100000)" fill="#FF7F00" stroke="none">
<path stroke-width="20" class="node" id="node1" d="M469 2868 c-7 -24 -18 -49 -25 -57 -16 -17 -37 -4 -31 19 3 13 -2 20
-20 25 -34 8 -55 -19 -40 -52 6 -13 13 -23 16 -23 3 0 13 -5 21 -10 13 -8 12
-11 -5 -24 -25 -19 -59 -20 -74 -3 -17 22 -69 8 -91 -23 -27 -38 -27 -65 -1
-50 27 14 39 -7 15 -25 -46 -33 -58 -44 -47 -45 19 0 48 -69 35 -82 -16 -16
-128 -23 -136 -9 -4 6 -13 11 -19 11 -7 0 2 -9 18 -20 39 -26 191 -29 209 -5
14 19 116 33 116 16 0 -6 -6 -11 -13 -11 -7 0 -24 -8 -37 -17 l-24 -17 34 -7
c20 -4 40 -3 47 3 18 15 43 2 43 -22 0 -11 15 -37 34 -58 44 -48 74 -126 68
-176 -4 -36 -3 -37 16 -25 29 18 42 0 15 -18 -17 -11 -23 -25 -23 -52 0 -26 3
-32 10 -21 12 20 32 0 31 -31 -1 -41 -1 -62 3 -150 3 -69 8 -93 28 -124 23
-36 23 -41 11 -100 -7 -33 -23 -85 -36 -115 -13 -30 -29 -82 -36 -115 -12 -56
-11 -70 14 -174 27 -114 29 -117 93 -168 15 -12 31 -47 48 -103 13 -47 33 -97
44 -112 22 -30 27 -68 8 -68 -7 0 6 -18 30 -40 26 -24 42 -48 42 -63 0 -13 17
-41 40 -66 22 -23 40 -38 40 -32 0 6 -9 19 -20 28 -11 10 -20 25 -20 34 0 10
-25 68 -56 130 -61 121 -73 176 -39 171 29 -5 52 -36 60 -83 4 -24 18 -52 34
-67 37 -38 71 -89 71 -107 0 -9 6 -18 14 -21 7 -3 38 -35 67 -71 48 -59 54
-72 56 -117 1 -28 2 -54 3 -57 1 -22 195 -117 297 -145 50 -14 68 -15 88 -6
41 19 67 14 122 -22 52 -34 125 -56 188 -56 42 0 135 -62 135 -90 0 -13 11
-20 38 -25 20 -4 43 -12 51 -18 8 -7 39 -17 70 -23 31 -6 63 -13 71 -15 10 -3
14 2 12 14 -4 24 25 57 49 57 10 0 33 -18 50 -40 30 -37 36 -40 81 -40 l48 0
0 85 0 85 55 0 c65 0 75 13 51 61 -11 22 -13 36 -6 43 5 5 10 15 10 20 0 6
-14 -6 -31 -27 -17 -20 -35 -37 -40 -37 -22 0 -69 -45 -69 -66 0 -12 -12 -36
-26 -54 -26 -30 -28 -31 -84 -24 -45 5 -63 3 -81 -10 -45 -31 -157 -13 -173
29 -3 9 -6 52 -6 95 l0 79 -37 7 c-21 4 -63 2 -93 -4 -82 -17 -104 -16 -94 6
5 9 8 36 8 59 0 24 3 43 7 43 3 0 9 17 12 37 3 21 8 47 13 57 7 17 4 18 -32
12 -57 -11 -72 -22 -83 -62 -13 -46 -38 -74 -66 -74 -12 0 -36 -5 -53 -11 -62
-21 -127 22 -176 120 -14 26 -16 47 -12 95 4 33 6 84 6 113 0 49 2 53 37 79
21 15 44 35 51 43 15 18 120 32 145 19 10 -5 24 -5 35 1 16 10 16 10 0 11 -20
0 -24 15 -7 26 6 3 54 8 108 10 53 2 105 6 116 9 27 7 59 -23 74 -68 12 -34
61 -87 82 -87 21 0 6 59 -32 123 -59 99 -54 128 48 245 18 20 33 44 34 52 1 8
3 27 4 42 2 15 -3 32 -11 39 -20 17 -19 63 2 55 13 -5 14 -1 9 24 -4 17 -2 30
3 30 5 0 12 14 16 31 3 18 24 48 46 70 39 38 40 41 25 62 -22 31 -20 39 25 96
22 28 40 53 40 56 0 10 28 35 39 35 6 0 8 -12 5 -29 -7 -33 11 -51 21 -21 3
11 10 20 16 20 5 0 15 15 24 33 8 17 20 39 26 48 8 10 9 26 4 45 -9 29 -9 29
-12 4 -7 -46 -12 -53 -27 -41 -15 13 -49 4 -40 -10 11 -18 -22 -7 -49 16 -21
19 -26 30 -21 50 9 38 -20 32 -61 -12 -19 -21 -37 -34 -41 -30 -4 3 2 28 14
54 17 41 31 54 88 88 50 30 70 49 78 72 20 59 56 70 56 18 0 -13 5 -47 11 -74
l10 -50 50 27 c27 15 51 35 54 44 7 20 -34 66 -44 50 -3 -6 -20 -12 -36 -14
-27 -3 -30 0 -33 27 -2 16 -7 32 -11 35 -3 3 -14 17 -24 32 -9 15 -30 31 -45
34 -15 4 -31 9 -37 12 -5 4 -23 5 -40 3 -19 -1 -42 6 -62 21 -17 13 -59 42
-92 66 l-60 42 2 -40 c1 -22 -4 -45 -9 -50 -19 -19 -65 1 -86 36 -12 20 -28
34 -40 34 -10 0 -28 5 -39 10 -13 8 -31 7 -59 -1 -22 -7 -40 -14 -40 -16 0 -2
9 -23 20 -45 11 -23 20 -53 20 -68 0 -16 11 -35 30 -52 35 -30 41 -82 14 -124
-16 -23 -15 -27 6 -67 25 -47 22 -97 -5 -97 -26 0 -81 59 -93 99 -11 36 -14
38 -54 39 -24 0 -69 12 -100 27 -34 16 -66 24 -77 20 -15 -5 -24 1 -35 23 -8
16 -22 32 -31 35 -23 9 -19 91 7 143 12 24 25 44 30 44 4 0 8 7 8 16 0 9 11
27 25 40 14 13 25 35 26 51 2 56 4 58 26 55 28 -4 54 41 35 60 -7 7 -12 22
-12 34 0 25 -21 46 -35 36 -6 -4 -10 -23 -11 -43 -1 -53 -11 -74 -29 -59 -7 6
-15 21 -17 33 -2 12 -9 21 -16 19 -18 -3 -44 24 -64 70 -9 21 -22 38 -28 38
-18 0 -11 -60 12 -90 18 -25 20 -33 10 -55 -6 -14 -16 -25 -21 -25 -13 0 -22
30 -16 51 6 19 -9 34 -25 24 -8 -5 -7 -11 0 -20 8 -10 8 -19 0 -34 -15 -29
-61 -27 -97 3 -29 24 -53 24 -53 0 0 -11 -11 -12 -47 -7 -53 6 -74 18 -67 37
3 7 -14 26 -38 42 -57 38 -88 54 -88 46 0 -4 -8 3 -18 16 -15 20 -20 21 -49
10 -27 -10 -35 -9 -51 5 -10 9 -26 17 -35 17 -9 0 -23 14 -30 33 -8 17 -25 43
-39 57 -29 31 -57 73 -79 122 -17 35 -50 63 -62 52 -3 -3 -14 -1 -24 4 -10 5
-35 12 -55 16 -37 7 -37 6 -49 -36z" style="fill: rgb(176, 57, 103);"></path>
<path stroke-width="20" class="node" id="node2" d="M1523 2633 c-60 -4 -81 -17 -47 -30 8 -3 13 -12 10 -19 -11 -29 107
-31 125 -2 7 10 13 10 31 -2 13 -8 38 -22 56 -31 55 -29 62 -38 62 -89 0 -40
-3 -48 -25 -58 -26 -12 -34 -32 -12 -32 7 0 22 7 34 15 21 14 25 14 62 -10 56
-35 115 -33 79 3 -8 8 -8 15 2 26 16 21 6 44 -23 55 -14 5 -27 19 -30 31 -5
20 -3 21 29 15 34 -6 35 -5 32 22 -3 28 -2 28 -105 49 -13 2 -23 13 -25 26 -5
35 -64 41 -255 31z" style="fill: rgb(176, 57, 103);"></path>
<path stroke-width="20" class="node" id="node3" d="M1686 2511 c-4 -7 -5 -15 -2 -18 9 -9 19 4 14 18 -4 11 -6 11 -12 0z" style="fill: rgb(176, 57, 103);"></path>
</g>
<g transform="translate(0.000000,300.000000) scale(0.100000,-0.100000)" fill="#FFFFFF" stroke="none">

</g>
</svg>