<svg version="1.0" xmlns="http://www.w3.org/2000/svg" width="300" height="300" viewBox="0 0 310.000000 400.000000" preserveAspectRatio="xMidYMid " class="svg" style="width: 256px; height: 256px;">
<metadata>
  <rdf:rdf xmlns:rdf="http://www.w3.org/1999/02/22-rdf-syntax-ns#" xmlns:rdfs="http://www.w3.org/2000/01/rdf-schema#" xmlns:dc="http://purl.org/dc/elements/1.1/">
    <rdf:description dc:title="South America" dc:publisher="Hiox" dc:date="2015-04-24" dc:format="image/svg+xml" dc:language="en">
      <dc:creator>
        <rdf:bag>
          <rdf:li>svgimages.com</rdf:li>
        </rdf:bag>
      </dc:creator>
    </rdf:description>
  </rdf:rdf>
</metadata>
<g transform="translate(0.000000,400.000000) scale(0.100000,-0.100000)" fill="#8CBA4E" stroke="none">
<path class="node" id="node1" d="M1250 3322 c0 -7 -29 -21 -93 -43 -26 -9 -40 -21 -44 -37 -3 -13 -23
-43 -45 -66 -34 -37 -38 -45 -32 -78 7 -45 -16 -178 -31 -178 -6 0 -16 -13
-22 -30 -6 -16 -18 -30 -27 -30 -9 0 -16 -7 -16 -15 0 -8 -11 -25 -25 -37 -31
-27 -33 -71 -4 -92 l21 -14 -25 -34 c-34 -46 -28 -102 14 -117 16 -5 29 -15
29 -22 0 -7 15 -35 33 -63 19 -28 40 -67 47 -86 8 -19 24 -51 36 -70 13 -19
26 -47 29 -62 9 -37 63 -90 125 -122 87 -46 120 -85 129 -153 5 -31 5 -70 0
-86 -4 -15 -3 -55 2 -89 5 -33 9 -115 8 -182 -1 -139 7 -403 14 -457 6 -43 25
-82 36 -75 17 11 39 -30 38 -67 0 -21 4 -42 11 -46 8 -4 11 -30 9 -75 -3 -60
-1 -69 15 -74 21 -5 23 -13 6 -30 -9 -9 -8 -16 5 -30 9 -10 17 -23 17 -29 0
-23 73 -98 92 -96 29 4 63 -16 49 -30 -8 -8 -14 -8 -23 1 -20 20 -32 13 -13
-8 19 -21 45 -27 45 -9 0 5 4 8 9 5 5 -3 8 2 7 11 0 9 10 23 24 30 14 7 20 13
14 13 -19 0 -39 59 -25 73 6 6 11 21 11 34 0 13 9 31 20 40 25 22 26 53 2 53
-26 0 -64 43 -56 63 3 9 14 19 24 22 14 4 19 18 22 60 2 32 -1 55 -7 55 -15 0
-37 52 -26 63 5 5 18 4 30 -3 40 -21 56 -10 53 38 -4 42 -3 42 31 42 54 0 96
19 113 52 14 27 14 33 -3 68 -10 22 -23 40 -29 40 -15 0 -39 29 -31 36 3 3 23
0 44 -7 41 -14 80 -19 101 -11 7 2 24 29 39 60 14 30 34 63 44 73 11 11 19 25
19 33 0 7 12 35 26 62 21 40 25 58 21 97 -6 42 -3 51 24 82 17 19 40 37 52 41
12 4 34 15 49 25 14 11 40 19 58 19 34 0 69 31 70 62 0 9 5 20 11 23 30 19 58
159 51 258 -4 63 -3 68 22 88 14 11 26 26 26 33 0 8 17 35 38 62 47 59 65 122
50 167 -15 45 -27 57 -54 57 -15 0 -43 17 -70 42 -39 36 -55 43 -107 51 -34 5
-75 9 -91 8 -16 0 -26 2 -22 6 10 10 -35 53 -55 53 -10 0 -21 5 -24 10 -12 19
-41 10 -68 -21 -14 -17 -31 -28 -37 -24 -7 4 -1 16 15 30 35 33 31 45 -15 45
-30 0 -40 -4 -40 -16 0 -18 -27 -43 -48 -44 -6 0 8 29 33 65 42 60 44 65 26
74 -11 6 -21 26 -25 50 -11 69 -84 122 -169 125 -46 1 -101 37 -122 80 -6 11
-25 25 -42 30 -27 8 -31 14 -27 32 5 19 1 23 -23 26 -22 2 -28 8 -26 26 3 27
3 27 -51 1 -35 -16 -49 -18 -65 -10 -11 6 -38 11 -60 11 -30 0 -41 4 -41 15 0
8 -9 15 -20 15 -10 0 -24 8 -29 18 -10 16 -10 16 -11 0 0 -11 -8 -18 -18 -18
-10 0 -23 -5 -29 -11 -19 -19 -26 11 -7 32 16 17 16 19 1 19 -10 0 -17 -3 -17
-8z" style="fill: rgb(176, 57, 103);"></path>
<path class="node" id="node2" d="M1630 3259 c0 -5 5 -7 10 -4 6 3 10 8 10 11 0 2 -4 4 -10 4 -5 0 -10
-5 -10 -11z" style="fill: rgb(176, 57, 103);"></path>
<path class="node" id="node3" d="M504 2800 c0 -11 6 -20 14 -20 7 0 12 8 10 17 -4 24 -24 27 -24 3z" style="fill: rgb(176, 57, 103);"></path>
<path class="node" id="node4" d="M1394 1035 c0 -14 7 -25 15 -25 8 0 11 6 7 16 -3 9 -6 20 -6 25 0 5
-4 9 -9 9 -5 0 -8 -11 -7 -25z" style="fill: rgb(176, 57, 103);"></path>
<path class="node" id="node5" d="M1730 1040 c0 -5 5 -10 10 -10 6 0 10 5 10 10 0 6 -4 10 -10 10 -5 0
-10 -4 -10 -10z" style="fill: rgb(176, 57, 103);"></path>
<path class="node" id="node6" d="M1420 930 c0 -5 5 -10 10 -10 6 0 10 5 10 10 0 6 -4 10 -10 10 -5 0
-10 -4 -10 -10z" style="fill: rgb(176, 57, 103);"></path>
<path class="node" id="node7" d="M1420 880 c-12 -8 -9 -10 13 -10 16 0 26 4 22 10 -8 12 -16 12 -35 0z" style="fill: rgb(176, 57, 103);"></path>
<path class="node" id="node8" d="M1446 765 c4 -8 7 -15 9 -15 2 0 5 7 9 15 3 9 0 15 -9 15 -9 0 -12
-6 -9 -15z" style="fill: rgb(176, 57, 103);"></path>
<path class="node" id="node9" d="M2010 659 c0 -5 5 -7 10 -4 6 3 10 8 10 11 0 2 -4 4 -10 4 -5 0 -10
-5 -10 -11z" style="fill: rgb(176, 57, 103);"></path>
<path class="node" id="node10" d="M1690 610 c0 -5 7 -10 16 -10 10 0 14 -6 10 -15 -3 -8 -1 -15 4 -15
6 0 10 -5 10 -10 0 -7 -14 -9 -37 -5 -30 4 -33 3 -16 -4 12 -6 59 -9 104 -9
l82 1 -41 16 c-23 9 -53 26 -67 39 -26 22 -65 30 -65 12z" style="fill: rgb(176, 57, 103);"></path>
<path class="node" id="node11" d="M1780 531 c-15 -4 -20 -10 -13 -14 13 -8 43 1 43 14 0 5 -1 9 -2 8
-2 -1 -14 -4 -28 -8z" style="fill: rgb(176, 57, 103);"></path>
<path class="node" id="node12" d="M1828 503 c7 -3 16 -2 19 1 4 3 -2 6 -13 5 -11 0 -14 -3 -6 -6z" style="fill: rgb(176, 57, 103);"></path>
</g>
<g transform="translate(0.000000,400.000000) scale(0.100000,-0.100000)" fill="#FFFFFF" stroke="none">

</g>
</svg>